<?xml version="1.0" standalone="no"?>
<!DOCTYPE svg PUBLIC "-//W3C//DTD SVG 20010904//EN"
 "http://www.w3.org/TR/2001/REC-SVG-20010904/DTD/svg10.dtd">
<svg version="1.0" xmlns="http://www.w3.org/2000/svg"
 width="201.000000pt" height="201.000000pt" viewBox="0 0 201.000000 201.000000"
 preserveAspectRatio="xMidYMid meet">
<metadata>
Created by potrace 1.11, written by Peter Selinger 2001-2013
</metadata>
<g transform="translate(0.000000,201.000000) scale(0.100000,-0.100000)"
fill="#000000" stroke="none">
<path d="M482 1869 c-63 -41 -62 -28 -62 -575 l0 -498 23 -33 c42 -62 54 -64
331 -61 l250 3 0 143 c0 125 2 143 18 147 9 3 18 16 20 27 5 32 28 35 28 4 0
-14 -4 -26 -9 -26 -5 0 -7 -21 -5 -47 2 -27 3 -94 4 -150 l0 -103 211 0 c226
0 261 6 294 54 23 32 22 1051 -1 1084 -36 52 -35 52 -571 52 -489 0 -499 -1
-531 -21z m1058 -24 c46 -42 47 -43 45 -555 -1 -323 -5 -492 -12 -505 -6 -11
-21 -29 -33 -40 -21 -19 -37 -20 -231 -21 l-209 0 0 120 0 120 68 -66 c72 -71
114 -92 126 -62 4 10 1 21 -6 26 -7 4 -10 8 -6 8 4 0 -15 32 -43 72 -46 67
-61 108 -40 108 8 0 92 -149 99 -176 2 -6 17 -17 35 -26 25 -11 37 -12 54 -3
21 11 21 13 8 39 -8 16 -15 29 -15 30 0 1 23 0 51 -1 56 -4 56 -7 2 68 -18 26
-33 49 -33 53 0 3 20 6 44 6 62 0 107 11 113 27 3 9 -12 33 -38 59 -36 37 -41
46 -29 54 8 5 18 10 23 10 21 0 2 29 -30 44 l-38 18 37 19 c20 10 46 31 58 46
l22 28 -31 12 c-34 14 -38 22 -19 41 15 15 7 22 -34 29 -44 7 -45 9 -15 37 32
30 36 65 8 63 -15 -1 -17 -4 -7 -19 9 -16 7 -22 -14 -38 -14 -10 -27 -17 -29
-14 -2 2 -21 -12 -41 -30 -47 -42 -129 -91 -138 -82 -3 4 5 28 18 53 20 38 35
51 85 74 33 16 65 29 72 29 6 0 15 5 19 11 4 8 -3 9 -27 4 l-33 -7 42 48 c31
36 38 51 30 61 -14 17 -26 16 -62 -2 -38 -20 -48 -11 -31 30 9 20 12 42 7 54
-7 20 -8 19 -49 -7 -23 -15 -47 -37 -52 -49 -13 -29 -4 -29 26 -1 13 12 23 16
23 10 0 -6 -4 -14 -10 -17 -12 -7 -13 -25 -2 -25 4 0 14 16 21 35 7 19 17 35
22 35 11 0 4 -30 -18 -72 -13 -28 -13 -28 17 -28 17 0 42 7 55 16 15 10 25 12
25 5 0 -16 -44 -41 -84 -48 -35 -6 -122 -75 -113 -91 3 -4 -6 -15 -19 -25 -13
-10 -24 -13 -24 -8 0 5 5 13 10 16 6 3 10 16 10 28 -1 20 -2 20 -11 5 -5 -10
-16 -18 -24 -18 -12 0 -12 5 -3 25 7 16 17 24 26 20 12 -4 12 -3 3 9 -9 11 -4
20 26 45 21 17 44 31 52 31 11 0 9 4 -5 14 -16 13 -21 13 -35 0 -8 -8 -21 -14
-28 -14 -7 0 1 11 17 24 16 14 39 45 52 70 20 37 22 47 11 60 -21 25 -47 19
-72 -19 -13 -19 -27 -35 -30 -35 -16 0 -28 55 -23 99 4 31 2 51 -5 55 -6 4
-11 2 -11 -5 0 -6 -8 -9 -20 -6 -22 6 -22 5 -24 -52 0 -22 -3 -42 -6 -45 -3
-2 -18 19 -34 49 -33 63 -56 78 -57 37 -1 -57 -16 -100 -28 -86 -5 5 -14 26
-21 47 -6 20 -18 37 -25 37 -15 0 -20 -13 -31 -73 l-6 -38 -27 25 c-29 28 -50
33 -52 14 -1 -7 -2 -20 -3 -28 0 -8 4 -39 11 -67 6 -29 9 -53 7 -53 -2 0 -33
23 -69 50 -54 44 -65 48 -73 34 -5 -8 -12 -15 -15 -15 -13 2 -11 -5 22 -62 18
-32 32 -60 30 -62 -2 -2 -38 7 -79 20 -41 14 -76 22 -79 20 -2 -3 3 -13 12
-23 10 -10 17 -26 17 -36 0 -14 -6 -16 -35 -10 -45 8 -46 -7 -5 -63 l30 -40
-48 -13 c-67 -18 -67 -19 -31 -56 18 -19 31 -35 28 -37 -2 -1 -16 -9 -32 -17
-38 -19 -30 -32 31 -50 50 -15 77 -30 53 -30 -24 0 -87 -48 -88 -68 -1 -13 3
-19 11 -16 8 3 16 -2 20 -11 4 -12 15 -15 48 -11 23 3 48 1 55 -5 7 -6 19 -9
28 -6 32 13 23 -14 -15 -44 -22 -18 -39 -38 -36 -45 3 -7 -6 -20 -20 -28 -13
-9 -24 -20 -24 -25 0 -17 53 -22 101 -10 27 7 51 10 54 8 2 -3 -7 -32 -20 -65
-13 -32 -20 -63 -16 -67 9 -9 101 32 101 45 0 4 8 8 17 8 13 0 14 3 5 12 -9 9
-17 7 -34 -9 -13 -11 -34 -26 -48 -32 -19 -10 -17 -5 10 18 19 16 31 33 27 37
-4 4 -14 -1 -22 -12 -8 -10 -15 -14 -15 -8 0 6 9 19 20 29 11 10 20 23 20 28
0 6 -9 2 -20 -8 -11 -10 -20 -13 -20 -8 0 6 7 16 15 23 38 31 -4 40 -74 15
-22 -8 -41 -10 -41 -5 0 5 -7 7 -15 4 -8 -4 -15 -1 -15 6 0 7 8 10 20 7 11 -3
26 0 33 7 52 49 124 95 162 102 39 7 38 -12 -2 -45 -26 -22 -32 -31 -20 -31
23 0 21 -8 -5 -30 -13 -10 -20 -22 -16 -26 4 -4 15 -1 25 7 15 12 16 12 8 -1
-4 -8 -15 -23 -23 -32 -8 -10 -10 -18 -5 -18 6 0 26 22 44 50 19 27 37 50 42
50 17 0 5 -32 -25 -66 -27 -31 -30 -38 -18 -48 8 -6 17 -24 18 -41 2 -16 6
-32 8 -34 3 -3 33 22 67 55 105 101 97 104 97 -28 l0 -114 -244 0 c-243 1
-245 1 -270 25 -14 13 -29 35 -33 50 -5 14 -8 242 -8 506 2 518 1 511 56 544
27 16 66 18 523 17 479 -1 495 -2 516 -21z m-408 -87 c-4 -18 -7 -58 -6 -88 3
-51 2 -53 -10 -27 -7 15 -15 24 -19 21 -14 -14 -7 25 14 80 24 61 36 69 21 14z
m-102 17 c0 -8 6 -15 14 -15 9 0 18 -22 26 -62 16 -82 15 -107 -3 -126 -14
-14 -18 -11 -33 22 -12 25 -23 35 -33 31 -8 -3 -18 0 -23 7 -12 20 -10 34 4
20 17 -17 31 -15 21 3 -10 18 7 135 19 135 4 0 8 -7 8 -15z m-82 -93 c32 -100
28 -117 -13 -52 -23 36 -33 64 -31 80 3 14 5 28 5 33 3 25 20 -2 39 -61z m6
52 c3 -8 2 -12 -4 -9 -6 3 -10 10 -10 16 0 14 7 11 14 -7z m-39 -107 c16 -34
32 -65 38 -68 6 -4 5 -9 -1 -13 -6 -4 -32 34 -60 89 -37 71 -44 91 -27 75 13
-12 35 -49 50 -83z m235 67 c0 -13 -3 -24 -8 -24 -4 0 -7 13 -7 29 -1 16 3 27
7 25 4 -3 8 -16 8 -30z m93 -19 c-37 -45 -56 -54 -68 -35 -4 6 -1 9 7 8 7 -2
12 4 11 12 -2 13 59 58 80 60 4 0 -9 -20 -30 -45z m-352 -66 c29 -58 32 -89 9
-89 -6 0 -13 8 -16 18 -17 52 -27 71 -35 66 -5 -3 -9 0 -9 5 0 6 4 11 9 11 4
0 6 11 3 25 -7 41 6 29 39 -36z m-33 -109 c3 -9 -1 -11 -14 -5 -11 4 -30 9
-42 10 -13 2 -25 5 -26 7 -48 62 -86 121 -86 134 0 18 160 -121 168 -146z
m-59 99 c13 -11 22 -21 20 -24 -3 -2 -18 7 -34 20 -17 13 -25 24 -20 24 6 0
21 -9 34 -20z m351 6 c-7 -8 -17 -15 -22 -15 -6 0 -5 7 2 15 7 8 17 15 22 15
6 0 5 -7 -2 -15z m40 11 c0 -3 -4 -8 -10 -11 -5 -3 -10 -1 -10 4 0 6 5 11 10
11 6 0 10 -2 10 -4z m-150 -81 c7 -25 10 -48 7 -51 -3 -3 -11 13 -17 36 -6 23
-14 48 -17 57 -4 10 -2 14 4 10 6 -4 16 -27 23 -52z m63 19 c-3 -16 -13 -36
-24 -42 -17 -11 -19 -9 -19 17 0 21 6 32 20 36 11 3 20 11 20 17 0 6 2 9 4 7
2 -2 2 -18 -1 -35z m43 -65 l-24 -54 -11 40 c-7 26 -7 41 -1 43 6 2 10 13 10
24 0 12 8 27 18 34 15 11 18 10 25 -10 5 -15 0 -39 -17 -77z m-137 49 c24 -91
28 -124 18 -146 -6 -12 -13 -22 -17 -22 -11 0 -60 52 -56 59 2 3 9 39 16 79 6
39 15 72 20 72 4 0 12 -19 19 -42z m366 -8 c-10 -11 -26 -20 -36 -20 -10 0
-29 -14 -42 -31 -25 -33 -56 -33 -38 -1 9 17 122 82 130 75 2 -1 -4 -12 -14
-23z m-687 4 c4 -4 -8 -4 -27 0 -60 11 -22 -8 46 -25 47 -11 67 -20 69 -32 1
-9 -3 -17 -9 -17 -8 0 -7 -4 1 -12 17 -17 15 -28 -6 -28 -10 0 -39 21 -63 47
-33 36 -45 43 -47 30 -3 -13 -14 -17 -43 -17 -21 0 -42 0 -46 -1 -4 0 -9 5
-11 11 -3 9 5 10 27 5 29 -6 31 -5 31 23 0 29 2 30 36 27 19 -2 39 -6 42 -11z
m207 -37 c28 -49 32 -69 11 -61 -14 5 -27 32 -41 82 -10 34 2 26 30 -21z m55
-13 c0 -14 -5 -24 -11 -22 -6 2 -10 7 -10 11 1 4 1 14 1 22 0 8 5 15 10 15 6
0 10 -12 10 -26z m150 -66 c0 -39 -4 -58 -12 -58 -7 0 -25 -12 -40 -27 -27
-26 -28 -26 -28 -5 0 26 20 72 32 72 4 0 8 -7 8 -15 0 -8 5 -15 10 -15 13 0
13 10 -4 59 -13 36 -13 42 1 57 23 22 33 2 33 -68z m-230 31 c30 -42 18 -48
-19 -10 -35 36 -37 41 -17 41 8 0 24 -14 36 -31z m-205 -1 c57 -15 58 -28 2
-28 -40 0 -67 13 -67 32 0 11 12 10 65 -4z m153 0 c19 -19 14 -29 -8 -16 -20
13 -27 28 -12 28 4 0 13 -5 20 -12z m377 -62 c-21 -26 -31 -46 -24 -48 20 -7
0 -47 -31 -63 -38 -20 -40 -19 -40 10 0 17 8 29 25 37 33 15 32 26 -2 20 -16
-2 -25 -1 -20 3 14 16 112 84 120 85 5 0 -8 -20 -28 -44z m43 -1 c-12 -24 -25
-42 -30 -39 -9 6 6 39 30 67 23 27 24 21 0 -28z m-93 25 c-3 -5 -11 -10 -16
-10 -6 0 -7 5 -4 10 3 6 11 10 16 10 6 0 7 -4 4 -10z m215 -25 c-19 -19 -39
-35 -44 -35 -10 1 63 70 73 70 3 0 -10 -16 -29 -35z m-690 15 c0 -5 -7 -10
-16 -10 -8 0 -12 5 -9 10 3 6 10 10 16 10 5 0 9 -4 9 -10z m30 6 c0 -3 -4 -8
-10 -11 -5 -3 -10 -1 -10 4 0 6 5 11 10 11 6 0 10 -2 10 -4z m76 -9 c3 -2 -11
-4 -31 -3 -19 0 -35 5 -35 9 0 8 58 3 66 -6z m82 1 c8 -10 2 -14 -24 -15 -19
-2 -34 2 -34 8 0 6 9 8 20 4 11 -4 20 -2 20 4 0 14 5 14 18 -1z m82 -8 c0 -11
-2 -20 -5 -20 -2 0 -9 9 -15 20 -9 16 -8 20 5 20 8 0 15 -9 15 -20z m510 10
c0 -13 -38 -37 -72 -45 -38 -10 -36 8 5 34 34 22 67 27 67 11z m-844 -13 c4
-4 -10 -7 -32 -6 -30 0 -34 2 -19 8 22 9 41 8 51 -2z m-81 -17 c-4 -6 -1 -19
6 -28 12 -16 12 -16 -5 0 -16 14 -15 38 0 38 3 0 2 -5 -1 -10z m261 -1 c8 -6
14 -20 14 -31 0 -19 -2 -18 -47 6 -64 36 -66 26 -2 -13 28 -18 49 -34 46 -37
-5 -5 -127 68 -127 76 0 11 102 10 116 -1z m-134 -17 c16 -16 4 -25 -31 -25
-34 0 -68 22 -51 33 16 10 69 5 82 -8z m238 8 c11 -7 3 -10 -28 -10 -26 0 -41
4 -37 10 8 13 45 13 65 0z m96 -5 c13 -13 13 -15 1 -15 -8 0 -20 7 -27 15 -9
11 -10 15 -1 15 7 0 19 -7 27 -15z m514 -1 c0 -2 -17 -4 -37 -3 -29 0 -33 2
-18 8 18 7 55 4 55 -5z m-554 -64 c45 -13 68 -30 40 -30 -10 0 -16 -9 -16 -21
0 -16 -4 -19 -22 -14 -29 8 -88 74 -88 98 0 17 1 17 21 -2 11 -10 40 -24 65
-31z m39 27 c7 -6 -5 -8 -34 -4 -24 3 -49 11 -55 17 -8 8 1 9 34 4 25 -4 50
-11 55 -17z m98 -24 c-3 -7 -9 -13 -14 -13 -17 0 -22 30 -8 46 12 14 14 14 20
-3 3 -10 4 -24 2 -30z m396 31 c-12 -16 -12 -17 1 -10 18 9 -16 -22 -51 -46
-20 -15 -22 -19 -9 -27 9 -7 10 -11 3 -11 -6 0 -18 7 -27 15 -8 8 -22 15 -30
15 -28 0 -17 19 17 30 32 10 32 10 -8 5 -81 -10 -88 -10 -92 1 -5 15 81 38
153 42 54 3 57 2 43 -14z m-629 -10 c0 -2 -7 -4 -15 -4 -8 0 -15 4 -15 10 0 5
7 7 15 4 8 -4 15 -8 15 -10z m415 7 c-14 -12 -82 -24 -70 -12 10 9 38 18 65
20 8 1 10 -2 5 -8z m-540 -15 c19 -8 35 -16 35 -18 0 -2 -45 -3 -100 -3 -55 0
-100 3 -100 6 0 7 77 25 113 28 10 0 33 -6 52 -13z m325 -31 c13 -16 7 -45 -9
-45 -6 0 -17 14 -26 30 -15 28 -14 30 4 30 10 0 24 -7 31 -15z m208 6 c10 -6
8 -9 -10 -13 -28 -5 -48 0 -48 13 0 11 40 12 58 0z m-730 -19 c2 -7 -2 -10
-12 -6 -9 3 -16 11 -16 16 0 13 23 5 28 -10z m333 1 c31 -19 33 -36 5 -41 -22
-5 -66 24 -66 43 0 20 25 19 61 -2z m-76 -18 l30 -25 -85 1 c-83 0 -180 25
-164 42 4 4 48 7 98 7 82 -1 94 -3 121 -25z m369 4 c-12 -13 -27 -19 -41 -16
-14 2 -23 -1 -23 -8 0 -6 -7 -12 -15 -12 -22 0 -18 12 8 24 80 38 97 40 71 12z
m61 -9 c17 -19 16 -20 -18 -36 -19 -9 -43 -14 -53 -10 -15 6 -14 10 11 36 34
35 37 36 60 10z m153 5 c-9 -9 -89 -11 -94 -3 -3 4 18 8 47 8 29 0 50 -2 47
-5z m-360 -23 c6 -18 -15 -14 -22 4 -4 10 -1 14 6 12 6 -2 14 -10 16 -16z
m421 -6 c74 -14 28 -33 -82 -35 -50 -1 -107 -4 -124 -7 -38 -6 -43 5 -10 25
40 26 127 33 216 17z m-461 -25 c3 -10 0 -10 -16 -2 -30 16 -38 33 -11 22 13
-4 25 -14 27 -20z m-333 10 c-6 -5 -23 -12 -40 -16 l-30 -6 25 15 c28 17 60
22 45 7z m144 -5 c-9 -10 -61 -15 -77 -8 -11 5 -2 9 28 12 44 5 57 4 49 -4z
m149 -7 c29 -21 16 -32 -14 -12 -16 10 -28 12 -37 6 -6 -6 -32 -17 -57 -26
-25 -8 -53 -18 -62 -22 -30 -12 -20 9 15 33 18 12 47 22 65 22 17 0 33 4 36 9
8 12 26 9 54 -10z m112 11 c0 -5 -4 -10 -10 -10 -5 0 -10 5 -10 10 0 6 5 10
10 10 6 0 10 -4 10 -10z m40 -15 c0 -22 -53 -106 -65 -102 -13 5 -18 42 -10
74 4 18 10 23 24 18 12 -3 21 0 25 10 7 19 26 20 26 0z m46 0 c4 -8 -6 -24
-23 -39 -34 -29 -40 -27 -18 8 10 14 14 26 11 26 -4 0 -4 5 -1 10 9 15 25 12
31 -5z m-428 -9 c2 -2 -13 -13 -32 -25 -25 -16 -48 -21 -78 -19 -24 2 -42 8
-40 13 6 24 131 49 150 31z m491 -15 c7 -5 9 -11 5 -14 -10 -5 -54 9 -54 18 0
8 34 6 49 -4z m133 -2 c-12 -11 -81 -18 -87 -9 -6 9 22 15 67 15 15 0 24 -3
20 -6z m161 -21 c39 -28 33 -32 -13 -8 -21 11 -46 20 -55 20 -9 0 -13 5 -10
10 8 13 41 4 78 -22z m-573 12 c0 -5 -7 -10 -16 -10 -10 0 -13 -6 -9 -19 5
-17 -1 -18 -70 -18 -41 0 -75 4 -75 8 0 11 102 47 138 48 17 0 32 -3 32 -9z
m70 2 c0 -9 -69 -36 -76 -29 -5 4 55 36 69 37 4 0 7 -4 7 -8z m495 -42 l60
-28 -99 -1 c-85 -1 -97 1 -86 14 6 8 9 19 5 25 -4 6 -4 17 -1 25 6 16 25 11
121 -35z m-769 25 c-23 -17 -36 -19 -36 -6 0 11 18 19 40 20 11 0 10 -3 -4
-14z m406 -17 c-7 -7 -12 -8 -12 -2 0 14 12 26 19 19 2 -3 -1 -11 -7 -17z
m226 4 c3 -10 -4 -13 -24 -10 -15 2 -29 9 -32 16 -3 10 4 13 24 10 15 -2 29
-9 32 -16z m-170 -53 c-15 -10 -48 1 -48 16 0 8 3 21 7 31 5 15 9 13 29 -12
15 -18 19 -31 12 -35z m72 46 c7 -9 10 -18 7 -22 -10 -9 -70 11 -75 25 -6 18
53 15 68 -3z m-260 -4 c0 -5 -14 -11 -32 -13 -28 -5 -29 -4 -13 9 21 15 45 17
45 4z m334 -39 c10 -13 24 -21 31 -18 14 5 41 -21 70 -67 l18 -28 -28 13 c-15
7 -22 14 -15 16 7 3 3 13 -11 28 -31 33 -48 30 -18 -3 21 -23 19 -23 -19 6
-42 32 -72 68 -72 84 0 12 22 -3 44 -31z m-224 19 c0 -5 -9 -19 -19 -32 -15
-18 -22 -21 -31 -13 -17 17 5 54 30 54 11 0 20 -4 20 -9z m-366 -29 c-41 -37
-96 -74 -101 -68 -9 9 18 37 66 68 47 29 68 30 35 0z m244 -6 c2 -10 -5 -28
-16 -39 -10 -12 -35 -51 -55 -87 -48 -85 -47 -52 1 61 25 62 42 89 52 87 8 -2
16 -11 18 -22z m334 -26 c40 -27 87 -61 103 -74 l30 -25 -28 -1 c-16 0 -30 6
-33 15 -4 9 -14 13 -23 11 -9 -3 -23 -1 -31 5 -11 8 -9 9 10 3 35 -9 18 6 -47
41 -59 32 -100 75 -70 75 8 0 48 -22 89 -50z m-422 26 c0 -18 -22 -36 -51 -41
-21 -4 -21 -3 6 25 31 33 45 38 45 16z m23 -22 c-10 -19 -19 -31 -21 -26 -4
14 16 62 28 62 5 0 2 -16 -7 -36z m115 17 c3 -8 -1 -12 -9 -9 -7 2 -15 10 -17
17 -3 8 1 12 9 9 7 -2 15 -10 17 -17z m121 -17 c12 -15 21 -34 21 -43 0 -9 9
-31 21 -50 11 -18 18 -35 16 -37 -2 -2 -23 16 -46 40 -33 34 -44 53 -46 80 -2
43 6 45 34 10z m41 -10 c0 -20 54 -117 75 -134 18 -15 19 -30 2 -30 -14 0 -29
22 -63 90 -30 61 -38 90 -25 90 6 0 11 -7 11 -16z m-140 -4 c0 -5 -7 -10 -15
-10 -8 0 -15 5 -15 10 0 6 7 10 15 10 8 0 15 -4 15 -10z m-50 -20 c0 -19 -88
-125 -97 -117 -2 2 9 26 23 53 45 81 74 106 74 64z m339 -86 c18 -25 30 -48
28 -51 -10 -10 -46 23 -67 59 -31 56 -2 50 39 -8z m41 -15 c0 -6 -4 -7 -10 -4
-5 3 -10 11 -10 16 0 6 5 7 10 4 6 -3 10 -11 10 -16z"/>
<path d="M427 623 c-4 -3 -7 -64 -7 -135 0 -121 1 -128 20 -128 24 0 23 -6 24
140 1 104 -3 129 -25 130 -3 0 -9 -3 -12 -7z"/>
<path d="M973 614 c-3 -8 -3 -20 0 -28 8 -20 43 -9 44 14 2 22 -36 35 -44 14z"/>
<path d="M886 601 c-9 -9 -16 -25 -16 -34 0 -9 -4 -17 -10 -17 -5 0 -10 -9
-10 -20 0 -11 5 -20 10 -20 6 0 10 -26 10 -59 0 -78 6 -91 40 -91 37 0 49 19
24 37 -14 10 -19 26 -19 63 0 31 4 50 11 50 22 0 24 29 4 40 -14 8 -19 18 -16
35 6 32 -7 39 -28 16z"/>
<path d="M1078 606 c-10 -7 -18 -23 -18 -35 0 -11 -4 -21 -10 -21 -5 0 -10 -9
-10 -20 0 -11 4 -20 10 -20 5 0 10 -33 12 -72 3 -72 3 -73 32 -76 38 -5 52 11
30 33 -23 23 -30 115 -8 115 19 0 18 36 -2 44 -9 3 -14 12 -11 19 2 6 1 20 -2
29 -5 14 -9 14 -23 4z"/>
<path d="M1372 604 c-12 -8 -22 -24 -22 -35 0 -10 -4 -19 -10 -19 -5 0 -10 -9
-10 -20 0 -11 5 -20 10 -20 6 0 10 -26 10 -59 0 -80 5 -91 45 -91 28 0 33 4
32 20 -1 11 -7 20 -14 20 -15 0 -15 0 -17 63 -1 30 3 47 10 47 22 0 24 29 4
40 -15 8 -19 18 -15 40 6 35 6 35 -23 14z"/>
<path d="M578 553 c-10 -2 -18 -10 -18 -16 0 -8 -3 -7 -9 1 -5 8 -17 12 -27
10 -16 -3 -18 -13 -17 -83 0 -44 2 -86 2 -92 1 -7 10 -13 21 -13 18 0 20 7 20
64 0 46 5 69 16 81 29 28 44 1 44 -77 0 -66 1 -69 22 -66 20 3 22 9 23 68 1
66 -10 120 -25 120 -5 0 -14 2 -22 4 -7 2 -21 2 -30 -1z"/>
<path d="M711 543 c-25 -17 -28 -65 -5 -87 8 -9 19 -16 24 -16 5 0 21 -5 35
-10 22 -8 25 -13 16 -24 -12 -14 -51 -10 -51 5 0 5 -11 9 -25 9 -30 0 -32 -13
-5 -40 46 -46 130 -19 130 41 0 31 -25 53 -72 64 -16 4 -28 11 -28 15 0 17 23
22 45 10 13 -7 32 -10 41 -6 16 6 16 8 -4 28 -26 26 -73 31 -101 11z"/>
<path d="M988 553 c-16 -4 -18 -17 -18 -99 0 -87 1 -94 20 -94 11 0 21 3 21 8
4 23 3 184 -1 186 -3 1 -13 1 -22 -1z"/>
<path d="M1178 552 c-15 -3 -18 -15 -18 -81 0 -78 9 -103 42 -114 9 -3 24 1
35 8 21 17 37 19 28 5 -3 -6 4 -10 18 -10 24 0 24 1 24 95 -1 91 -2 95 -23 95
-20 0 -22 -5 -23 -67 -1 -72 -8 -87 -37 -81 -16 3 -19 14 -21 77 -1 40 -3 74
-5 75 -2 1 -11 1 -20 -2z"/>
<path d="M1493 550 c-47 -19 -65 -101 -34 -158 24 -45 117 -43 135 3 13 36 6
122 -11 138 -24 21 -63 28 -90 17z m63 -65 c8 -34 1 -67 -18 -78 -24 -16 -48
8 -48 49 0 59 53 82 66 29z"/>
<path d="M440 270 c-38 -38 -18 -76 44 -85 66 -10 74 -45 14 -60 -19 -5 -32
-1 -47 14 -27 27 -33 26 -29 -1 3 -20 10 -23 59 -26 51 -3 59 0 78 24 12 15
21 32 21 39 0 18 -24 35 -57 41 -49 8 -63 15 -63 29 0 8 8 19 18 24 24 13 62
3 62 -15 0 -21 17 -17 23 5 7 27 0 31 -55 31 -35 0 -54 -6 -68 -20z"/>
<path d="M623 279 c13 -8 17 -24 17 -79 0 -55 -4 -71 -17 -79 -14 -8 -6 -10
35 -11 45 0 51 2 40 13 -12 13 -14 37 -9 140 1 10 6 15 11 12 6 -3 10 -1 10 4
0 7 -22 11 -52 11 -41 -1 -49 -3 -35 -11z"/>
<path d="M753 279 c13 -8 17 -24 17 -79 0 -55 -4 -71 -17 -79 -14 -8 -8 -10
27 -10 25 1 37 3 28 6 -15 4 -18 16 -18 66 l0 61 69 -68 c41 -40 75 -67 83
-64 10 4 13 24 12 74 -1 50 3 74 14 87 14 16 12 17 -29 16 -24 -1 -36 -3 -26
-6 16 -4 20 -19 20 -78 0 -8 -1 -20 -2 -27 0 -7 -29 16 -64 50 -53 52 -68 62
-97 62 -29 -1 -32 -2 -17 -11z"/>
<path d="M1053 271 c-56 -34 -52 -118 7 -148 26 -13 107 -17 134 -7 29 11 17
22 -16 15 -89 -20 -152 55 -100 119 22 27 89 31 108 6 15 -21 24 -20 24 3 0
24 -19 31 -78 31 -29 0 -59 -8 -79 -19z"/>
<path d="M1253 279 c13 -8 17 -24 17 -79 0 -55 -4 -71 -17 -79 -14 -8 -3 -10
42 -10 33 1 52 3 43 6 -10 2 -18 8 -19 11 -8 55 -6 60 27 64 18 2 39 1 46 -2
18 -6 16 -59 -3 -71 -9 -6 5 -9 41 -9 42 1 51 3 38 11 -25 14 -26 136 -1 154
14 10 8 12 -35 13 -29 1 -52 -3 -52 -8 0 -6 6 -9 13 -7 7 1 12 -9 12 -28 0
-29 -2 -30 -45 -30 -38 0 -45 3 -46 20 0 11 6 28 14 38 14 16 11 17 -39 17
-42 -1 -50 -3 -36 -11z"/>
<path d="M1524 275 c21 -22 19 -142 -3 -155 -12 -7 -2 -9 33 -10 39 0 46 3 37
13 -13 16 -13 147 0 147 5 0 9 5 9 10 0 6 -21 10 -46 10 -40 0 -44 -2 -30 -15z"/>
</g>
</svg>
